<?xml version="1.0" encoding="UTF-8" standalone="no"?>
<svg
   xmlns:dc="http://purl.org/dc/elements/1.1/"
   xmlns:cc="http://creativecommons.org/ns#"
   xmlns:rdf="http://www.w3.org/1999/02/22-rdf-syntax-ns#"
   xmlns:svg="http://www.w3.org/2000/svg"
   xmlns="http://www.w3.org/2000/svg"
   viewBox="0 0 150.80002 57.406468"
   height="57.406467"
   width="150.8"
   xml:space="preserve"
   id="svg4504"
   version="1.1"><metadata
     id="metadata4510"><rdf:RDF><cc:Work
         rdf:about=""><dc:format>image/svg+xml</dc:format><dc:type
           rdf:resource="http://purl.org/dc/dcmitype/StillImage" /><dc:title></dc:title></cc:Work></rdf:RDF></metadata><defs
     id="defs4508"><clipPath
       id="clipPath4520"
       clipPathUnits="userSpaceOnUse"><path
         id="path4518"
         d="M 0,296 H 617 V 0 H 0 Z" /></clipPath></defs><g
     transform="matrix(1.3333333,0,0,-1.3333333,-26.07721,370.63741)"
     id="g4512"><g
       id="g4514"><g
         clip-path="url(#clipPath4520)"
         id="g4516"><g
           transform="translate(574.8662,277.3711)"
           id="g4786"><path
             id="path4788"
             style="fill:#000000;fill-opacity:1;fill-rule:nonzero;stroke:none"
             d="M 0,0 C -0.37,0.035 -0.762,-0.133 -1.112,0.11 -0.756,-0.075 -0.362,0.129 0,0" /></g><g
           transform="translate(574.8662,277.3711)"
           id="g4822"><path
             id="path4824"
             style="fill:#000000;fill-opacity:1;fill-rule:nonzero;stroke:none"
             d="m 0,0 c -0.37,0.035 -0.762,-0.133 -1.112,0.11 0.513,0 0.652,0.089 1.099,-0.1 C -0.008,0.007 -0.005,0.003 0,0" /></g><g
           transform="translate(415.7617,277.3711)"
           id="g4830"><path
             id="path4832"
             style="fill:#000000;fill-opacity:1;fill-rule:nonzero;stroke:none"
             d="M 0,0 C -0.371,0.035 -0.762,-0.133 -1.112,0.11 -0.757,-0.075 -0.362,0.129 0,0" /></g><g
           transform="translate(415.7617,277.3711)"
           id="g4866"><path
             id="path4868"
             style="fill:#000000;fill-opacity:1;fill-rule:nonzero;stroke:none"
             d="m 0,0 c -0.371,0.035 -0.762,-0.133 -1.112,0.11 0.512,0 0.652,0.089 1.098,-0.1 C -0.009,0.007 -0.005,0.003 0,0" /></g><g
           transform="translate(262.9165,277.6411)"
           id="g5138"><path
             id="path5140"
             style="fill:#000000;fill-opacity:1;fill-rule:nonzero;stroke:none"
             d="M 0,0 C -0.371,0.035 -0.762,-0.134 -1.112,0.11 -0.756,-0.075 -0.362,0.128 0,0" /></g><g
           transform="translate(264.6372,277.4409)"
           id="g5142"><path
             id="path5144"
             style="fill:#000000;fill-opacity:1;fill-rule:nonzero;stroke:none"
             d="M 0,0 C -0.591,-0.041 -1.167,0.032 -1.734,0.21 -1.161,0.095 -0.576,0.085 0,0" /></g><g
           transform="translate(264.6372,277.4409)"
           id="g5170"><path
             id="path5172"
             style="fill:#000000;fill-opacity:1;fill-rule:nonzero;stroke:none"
             d="M 0,0 C -0.591,-0.041 -1.167,0.032 -1.734,0.21 -1.149,0.187 -0.56,0.219 0,0" /></g><g
           transform="translate(262.9165,277.6411)"
           id="g5174"><path
             id="path5176"
             style="fill:#000000;fill-opacity:1;fill-rule:nonzero;stroke:none"
             d="m 0,0 c -0.371,0.035 -0.762,-0.134 -1.112,0.11 0.513,0 0.652,0.089 1.099,-0.1 C -0.008,0.007 -0.005,0.003 0,0" /></g><g
           transform="translate(109.6865,277.6411)"
           id="g5182"><path
             id="path5184"
             style="fill:#000000;fill-opacity:1;fill-rule:nonzero;stroke:none"
             d="M 0,0 C -0.371,0.035 -0.762,-0.134 -1.113,0.11 -0.757,-0.075 -0.363,0.128 0,0" /></g><g
           transform="translate(111.4067,277.4409)"
           id="g5186"><path
             id="path5188"
             style="fill:#000000;fill-opacity:1;fill-rule:nonzero;stroke:none"
             d="M 0,0 C -0.591,-0.041 -1.167,0.032 -1.734,0.21 -1.161,0.095 -0.576,0.085 0,0" /></g><g
           transform="translate(114.3931,276.9346)"
           id="g5190"><path
             id="path5192"
             style="fill:#000000;fill-opacity:1;fill-rule:nonzero;stroke:none"
             d="M 0,0 C -1.012,-0.075 -1.956,0.255 -2.916,0.489 -1.942,0.333 -0.98,0.108 0,0" /></g><g
           transform="translate(130.3267,244.7573)"
           id="g5194"><path
             id="path5196"
             style="fill:#000000;fill-opacity:1;fill-rule:nonzero;stroke:none"
             d="M 0,0 C -0.002,-0.001 -0.002,-0.001 -0.003,-0.003 -0.009,-0.006 -0.014,-0.01 -0.017,-0.015 -0.05,-0.042 -0.081,-0.073 -0.109,-0.105 -0.11,-0.07 -0.11,-0.035 -0.11,0 Z" /></g><g
           transform="translate(106.1167,277.8765)"
           id="g5198"><path
             id="path5200"
             style="fill:#000000;fill-opacity:1;fill-rule:nonzero;stroke:none"
             d="M 0,0 C 0.142,0.014 0.286,0.015 0.433,0.01 0.289,0.01 0.144,0.007 0,0 m 4.984,-42.94 c 5.493,0.003 10.984,0.002 16.476,0.002 0.183,0 0.365,0.014 0.548,0.02 0.418,0.011 0.723,0.195 0.906,0.577 0.03,0.057 0.08,0.111 0.086,0.169 0.184,1.4 0.334,2.803 0.415,4.213 0.078,0.055 0.073,0.138 0.08,0.22 0.142,1.477 0.202,2.963 0.506,4.421 0.033,0.03 0.067,0.062 0.1,0.094 -10e-4,0.035 -10e-4,0.07 -10e-4,0.105 h 0.11 c -0.002,-0.002 -0.002,-0.002 -0.003,-0.003 -0.006,-0.003 -0.011,-0.007 -0.014,-0.012 -0.033,-0.027 -0.064,-0.058 -0.092,-0.09 0.371,-0.002 0.75,-0.09 1.103,0.105 0.405,0.062 0.578,0.352 0.69,0.703 0.031,0.426 -0.037,0.862 0.121,1.276 0,0 0.74,5.445 0.503,8.493 -0.033,0.419 -0.139,0.83 -0.122,1.252 -0.053,0.428 -0.082,0.86 -0.164,1.283 -0.384,1.959 -0.993,3.845 -1.807,5.674 -1.302,2.933 -3.132,5.48 -5.428,7.705 -1.1,1.228 -2.442,2.143 -3.834,3.002 -0.735,0.454 -1.501,0.838 -2.285,1.192 -0.09,0.06 -0.175,0.129 -0.272,0.176 -0.773,0.376 -1.613,0.571 -2.415,0.872 C 9.566,-1.259 8.94,-1.037 8.276,-0.942 7.264,-1.017 6.321,-0.687 5.36,-0.453 5.342,-0.431 5.318,-0.426 5.29,-0.436 4.699,-0.476 4.123,-0.404 3.556,-0.225 3.561,-0.229 3.564,-0.232 3.57,-0.235 3.199,-0.2 2.808,-0.369 2.457,-0.125 c -0.013,0.057 -0.045,0.087 -0.105,0.079 -1.764,0.205 -3.535,0.15 -5.3,0.107 -4.972,-0.124 -9.878,-0.903 -14.776,-1.691 -3.28,-0.53 -6.549,-1.144 -9.804,-1.822 -3.692,-0.77 -7.376,-1.574 -11.041,-2.464 -4.236,-1.029 -8.457,-2.115 -12.691,-3.148 -4.193,-1.023 -8.355,-2.167 -12.566,-3.123 -1.999,-0.452 -3.977,-0.995 -5.991,-1.388 -1.008,-0.196 -1.998,-0.47 -3.004,-0.679 -1.307,-0.272 -2.632,-0.476 -3.933,-0.779 -2.07,-0.479 -4.166,-0.805 -6.261,-1.146 -1.082,-0.175 -2.158,-0.394 -3.235,-0.599 -0.222,-0.044 -0.334,-0.172 -0.304,-0.421 0.052,-0.427 0.08,-0.857 0.117,-1.284 0.033,-0.368 0.067,-0.736 0.1,-1.103 0.07,-0.735 0.139,-1.468 0.209,-2.203 -0.002,-0.147 -0.022,-0.297 0.077,-0.428 -0.019,-0.025 -0.019,-0.052 0,-0.076 0.005,-0.134 0.008,-0.268 0.013,-0.401 -0.002,-0.405 0.007,-0.809 0.105,-1.205 0.002,-0.1 0.002,-0.2 0.002,-0.3 -0.059,-0.482 0.062,-0.944 0.139,-1.41 -0.007,-0.107 0.004,-0.212 0.042,-0.317 0.004,-0.093 0.011,-0.184 0.016,-0.278 0.007,-0.274 -0.067,-0.554 0.057,-0.82 0.175,-1.936 0.356,-3.87 0.521,-5.804 0.224,-2.601 0.418,-5.205 0.666,-7.804 0.054,-0.565 -0.052,-1.167 0.254,-1.701 0.257,-0.494 0.7,-0.605 1.21,-0.605 3.933,-0.002 7.868,-0.007 11.804,-0.012 l 2.091,0.013 c 0.508,0 1.001,-0.005 1.493,0 4.747,0.057 9.496,-0.128 14.24,0.105 0.856,0.043 1.684,0.127 2.522,0.364 0.691,0.196 1.112,0.197 1.599,0.443 0.013,0.005 0.025,0.012 0.036,0.02 0.035,0.018 0.069,0.04 0.1,0.067 0.067,0.05 0.127,0.115 0.184,0.197 0.176,0.182 0.391,0.304 0.618,0.414 1.116,0.545 2.095,1.288 3.024,2.103 2.48,2.18 5.161,3.984 8.376,4.971 2.13,0.655 4.29,0.977 6.478,1.005 5.575,0.069 11.152,0.04 16.73,0.011 1.609,-0.009 3.148,-0.38 4.561,-1.225 1.306,-0.782 2.237,-1.897 3.028,-3.159 0.388,-0.978 0.777,-1.957 1.164,-2.936 0.061,-0.133 0.106,-0.276 0.183,-0.398 0.847,-1.334 2.119,-1.91 3.643,-1.975 1.032,-0.044 2.066,-0.01 3.1,-0.012 z" /></g><g
           transform="translate(56.876,235.8716)"
           id="g5202"><path
             id="path5204"
             style="fill:#000000;fill-opacity:1;fill-rule:nonzero;stroke:none"
             d="M 0,0 -0.003,-0.003 C -0.015,-0.01 -0.025,-0.015 -0.037,-0.02 -0.023,-0.015 -0.012,-0.008 0,0" /></g><g
           transform="translate(130.3267,244.7573)"
           id="g5206"><path
             id="path5208"
             style="fill:#000000;fill-opacity:1;fill-rule:nonzero;stroke:none"
             d="M 0,0 C -0.002,-0.001 -0.002,-0.001 -0.003,-0.003 -0.009,-0.006 -0.014,-0.01 -0.017,-0.015 -0.049,-0.011 -0.079,-0.006 -0.11,0 Z" /></g><g
           transform="translate(114.3931,276.9346)"
           id="g5210"><path
             id="path5212"
             style="fill:#000000;fill-opacity:1;fill-rule:nonzero;stroke:none"
             d="M 0,0 C -1.012,-0.075 -1.956,0.255 -2.916,0.489 -1.927,0.421 -0.945,0.319 0,0" /></g><g
           transform="translate(111.4067,277.4409)"
           id="g5214"><path
             id="path5216"
             style="fill:#000000;fill-opacity:1;fill-rule:nonzero;stroke:none"
             d="M 0,0 C -0.591,-0.041 -1.167,0.032 -1.734,0.21 -1.149,0.187 -0.56,0.219 0,0" /></g><g
           transform="translate(109.6865,277.6411)"
           id="g5218"><path
             id="path5220"
             style="fill:#000000;fill-opacity:1;fill-rule:nonzero;stroke:none"
             d="m 0,0 c -0.371,0.035 -0.762,-0.134 -1.113,0.11 0.514,0 0.653,0.089 1.099,-0.1 C -0.009,0.007 -0.005,0.003 0,0" /></g><g
           transform="translate(130.3267,244.7573)"
           id="g5222"><path
             id="path5224"
             style="fill:#000000;fill-opacity:1;fill-rule:nonzero;stroke:none"
             d="M 0,0 C -0.002,-0.001 -0.002,-0.001 -0.003,-0.003 -0.009,-0.006 -0.014,-0.01 -0.017,-0.015 -0.05,-0.042 -0.081,-0.073 -0.109,-0.105 -0.11,-0.07 -0.11,-0.035 -0.11,0 Z" /></g></g></g></g></svg>